<svg xmlns="http://www.w3.org/2000/svg" width="35.698" height="29.382" data-name="Group 264"><defs><clipPath id="a"><path fill="#fff" d="M0 0h35.698v29.382H0z" data-name="Rectangle 117"/></clipPath></defs><g clip-path="url(#a)" data-name="Group 263"><path fill="#fff" d="M35.551 3.522a14.74 14.74 0 0 1-3.611 1.029c.58-.1 1.433-1.148 1.775-1.574a6.628 6.628 0 0 0 1.2-2.185c.032-.062.054-.14-.008-.188a.2.2 0 0 0-.191.016 18.4 18.4 0 0 1-4.281 1.638.285.285 0 0 1-.295-.078 3.476 3.476 0 0 0-.374-.382A7.557 7.557 0 0 0 27.691.527a7.215 7.215 0 0 0-3.18-.512 7.6 7.6 0 0 0-3.017.852 7.775 7.775 0 0 0-2.434 1.988 7.474 7.474 0 0 0-1.453 2.911 7.879 7.879 0 0 0-.077 3.074c.023.172.007.194-.148.172C11.5 8.136 6.631 6.033 2.675 1.525c-.172-.2-.265-.2-.405.015-1.732 2.595-.892 6.76 1.27 8.812.289.273.585.546.9.8a7.5 7.5 0 0 1-2.838-.8c-.171-.109-.257-.047-.273.149a4.446 4.446 0 0 0 .047.842 7.539 7.539 0 0 0 4.648 6.012 4.436 4.436 0 0 0 .943.289 8.4 8.4 0 0 1-2.783.086c-.2-.039-.281.063-.2.257 1.225 3.338 3.869 4.331 5.849 4.9.265.047.53.047.8.109-.017.024-.032.024-.047.047-.657 1-2.933 1.746-3.994 2.117a14.3 14.3 0 0 1-6.065.776c-.326-.048-.4-.044-.483 0s-.012.134.093.218c.414.273.835.516 1.264.749a19.942 19.942 0 0 0 4.055 1.623c7.287 2.012 15.495.533 20.967-4.9 4.3-4.269 5.8-10.157 5.8-16.051 0-.231.272-.358.434-.48a14.211 14.211 0 0 0 2.854-2.968.9.9 0 0 0 .189-.568v-.037c0-.095 0-.066-.146 0" data-name="Path 82"/></g></svg>