<svg xmlns="http://www.w3.org/2000/svg" width="29.382" height="29.382" data-name="Group 270"><defs><clipPath id="a"><path fill="#fff" d="M0 0h29.382v29.382H0z" data-name="Rectangle 120"/></clipPath></defs><g fill="#fff" clip-path="url(#a)" data-name="Group 269"><path d="M22.469 5.247a1.722 1.722 0 1 0 1.723 1.722 1.723 1.723 0 0 0-1.722-1.722" data-name="Path 85"/><path d="M14.811 7.455a7.236 7.236 0 1 0 7.235 7.236 7.244 7.244 0 0 0-7.235-7.236m0 11.871a4.635 4.635 0 1 1 4.635-4.635 4.64 4.64 0 0 1-4.635 4.635" data-name="Path 86"/><path d="M20.555 29.382H8.825A8.836 8.836 0 0 1 0 20.556V8.826A8.836 8.836 0 0 1 8.825 0h11.73a8.836 8.836 0 0 1 8.826 8.826v11.73a8.836 8.836 0 0 1-8.826 8.826M8.825 2.764a6.068 6.068 0 0 0-6.062 6.062v11.73a6.068 6.068 0 0 0 6.061 6.061h11.731a6.068 6.068 0 0 0 6.061-6.061V8.826a6.068 6.068 0 0 0-6.061-6.061Z" data-name="Path 87"/></g></svg>