<svg xmlns="http://www.w3.org/2000/svg" width="29.855" height="20.898" data-name="Group 266"><defs><clipPath id="a"><path fill="#fff" d="M0 0h29.855v20.898H0z" data-name="Rectangle 118"/></clipPath></defs><g clip-path="url(#a)" data-name="Group 265"><path fill="#fff" d="M29.855 6.552A6.552 6.552 0 0 0 23.3 0H6.551A6.552 6.552 0 0 0 0 6.552v7.8A6.551 6.551 0 0 0 6.551 20.9H23.3a6.551 6.551 0 0 0 6.551-6.552ZM20 11.034l-7.512 3.717c-.295.159-1.3-.054-1.3-.389v-7.63c0-.339 1.009-.551 1.3-.384l7.191 3.912c.3.172.618.608.313.773" data-name="Path 83"/></g></svg>