<svg xmlns="http://www.w3.org/2000/svg" width="115.085" height="89.518" viewBox="0 0 115.085 89.518">
  <g id="Group_702" data-name="Group 702" transform="translate(-1750.806 -374.155)">
    <path id="Path_10509" data-name="Path 10509" d="M1895.3,539.824c.042-.024.086-.047.13-.07l-.137-.164C1895.263,539.558,1895.281,539.488,1895.3,539.824Z" transform="translate(-99.182 -113.555)" fill="#fff"/>
    <path id="Path_10510" data-name="Path 10510" d="M1920.467,541.92l-1.927-1.047a.131.131,0,0,1-.171-.059c-.781-.651-1.58-1.283-2.34-1.958-1.357-1.206-2.641-2.5-4.051-3.64a2.722,2.722,0,0,0-3.589-.019c-.839.611-1.75,1.124-2.631,1.677a4.139,4.139,0,0,1-3.978.244,8.52,8.52,0,0,0-4.056-.037,15.938,15.938,0,0,0-3.175,1.2l-5.25,2.562a26.061,26.061,0,0,1-9.378,3.5l7.089-3.878,1.588-1.241.525-.435.61-.557a.32.32,0,0,1,.1-.258l.272-.371.027.03.008-1.537-.389-.45-.5-.5a.2.2,0,0,1-.1-.17l-.472-.458-.208-.434-.295-.481a.113.113,0,0,1-.033-.167q.011-.767.022-1.534a.249.249,0,0,1,.07-.212l.187-.447.165-.479q-.037-1.548-.075-3.1l-.276-.26a.285.285,0,0,1-.154-.017.285.285,0,0,0,.154.017l-.273-.117-.623-.04c-3.293,2.508-6.619,4.975-9.871,7.537-3.658,2.881-7.249,5.847-10.869,8.776v0c-2.478,1.418-4.946,2.853-7.441,4.24a10.64,10.64,0,0,1-1.753.616c.29.145.581.422.868.417,8.421-.149,16.624-1.839,24.84-3.484,3.559-.713,7.169-1.171,10.754-1.756.5-.081.986-.23,1.478-.348l1.388-.223.632-.044a57.457,57.457,0,0,1,15.056-.33c2.021.284,4.04.579,6.063.847.6.08,1.22.084,1.83.122l.206-.639q-.015-.464-.029-.928Zm-48.938,1.066a1.858,1.858,0,0,1-.1.2h0A1.844,1.844,0,0,0,1871.528,542.986Zm-.246-.172h0a1.811,1.811,0,0,0-.1.2A1.811,1.811,0,0,1,1871.283,542.814Zm-3.066.487,1.564-.943.461.8-.461-.8-1.564.943-1.612.266h0Zm-1.57,2.823h0c.072.1.146.241.218.358C1866.792,546.365,1866.719,546.223,1866.646,546.124Z" transform="translate(-73.188 -105.102)" fill="#fff"/>
    <path id="Path_10511" data-name="Path 10511" d="M1895.752,620c-2.361.09-4.726.074-7.089.1-12.955,1.32-25.687,4.556-38.786,4.6-3.38.011-6.761-.361-10.141-.557l-11.309-1.889-1.237-.244c.564,1.376,1.927,1.442,3.018,1.546-1.091-.1-2.454-.17-3.018-1.545l-.941-.14h0l-.729.873q.029.694.058,1.387.129,1.97.258,3.941.046,1.483.093,2.965l.642.568.637-.044.147.022.133-.067,1.045-.075,7.716-.2.963-.153,1.272-.678.265-.333.672-.952.362-.525h0l.588-.7,1.057-.854h0l1.129-.08,2.164-.113,2.515-.193,1.231-.041.027-.04,1.263-.048c.624.014,1.249.047,1.873.041q14.167-.14,28.333-.282c2.679-.022,3.068.333,3.593,2.961a3.9,3.9,0,0,1,.112,1.087c-.133,1.478.7,1.745,1.939,1.709,2.969-.085,5.941-.078,8.909-.182a7.759,7.759,0,0,0,1.875-.553q.472-3.132.944-6.264.046-.457.092-.915l.27-1.26a1.487,1.487,0,0,0-.242.016l.054-.659.122-.653q.042-.448.083-.9-.051-.605-.1-1.21l-.036-.03,0-.016v-.007h0A7.211,7.211,0,0,1,1895.752,620Zm-56.672,8.562c.217-.119.451-.225.657-.352v0h0C1839.531,628.336,1839.3,628.442,1839.08,628.561Zm1.318-1.255-.115.513.115-.513.585-.376Z" transform="translate(-51.293 -168.384)" fill="#fff"/>
    <path id="Path_10512" data-name="Path 10512" d="M1823.484,570.2c.038-.676,0-1.661-.415-2a18.507,18.507,0,0,0-3.2-1.744q.362,4.368.725,8.737l2.377-.064C1823.154,573.49,1823.391,571.849,1823.484,570.2Z" transform="translate(-47.417 -132.021)" fill="#fff"/>
    <path id="Path_10513" data-name="Path 10513" d="M1751.111,511.866c.729-.068,1.458-.158,2.189-.2.95-.053,1.9-.066,2.854-.1-.043-.817-.063-1.635-.139-2.449a13.263,13.263,0,0,0-.275-1.392l1.646.234V505.3l-6.58,5.988Z" transform="translate(0 -90.03)" fill="#fff"/>
    <path id="Path_10514" data-name="Path 10514" d="M1822.45,551.861c-.4-.676-.7-1.283-1.1-1.813-1.16-1.545-2.36-3.059-3.545-4.586l.525,5.2a6.771,6.771,0,0,1,1.393.865A1.945,1.945,0,0,0,1822.45,551.861Z" transform="translate(-45.999 -117.606)" fill="#fff"/>
    <path id="Path_10515" data-name="Path 10515" d="M1818.405,618.426l.105-.072-.148-.038Z" transform="translate(-46.379 -167.623)" fill="#fff"/>
    <path id="Path_10516" data-name="Path 10516" d="M1881.6,421.445c0-.21,0-.421.005-.63l-.712-.756-.921-.91-.67-.647-1.827-1.861-1.911-1.912-1.224-1.206-.34-.393q.045-.791.091-1.583a1.534,1.534,0,0,0-1.479-1.891l-.73-.647-.69-.558-1.81-1.415-1.016-.772-.892-.668-1.681-1.181c-.7-.612-1.438-1.187-2.092-1.845a23.712,23.712,0,0,0-2.748-2.913q-15.091-10.662-30.275-21.193c-1.111-.775-2.386-1.341-3.405-2.214-3.449-2.955-6.946-2.67-10.364.147-4.627,3.814-10.513,6.021-14.085,11.212-.8,1.158-2.34,1.794-3.514,2.7q-7.964,6.168-15.9,12.369c-.393.307-.974.882-.9,1.192.359,1.462-.792,1.917-1.564,2.576-1.663,1.419-3.414,2.735-5.079,4.151a22.428,22.428,0,0,0-1.845,1.995l.87.724-1.194,1.34c1.583-.459,3.344,1.593,4.244.523.953-1.133.86-3.013,1.332-4.492.129-.4.8-1.022,1.013-.946,1.83.657,1.858-1.206,1.787-1.714-.189-1.361.713-1.643,1.482-2a1.55,1.55,0,0,1,2.21.8c.089.175.423.226.256.144.715-.639,1.169-1.366,1.759-1.5.953-.216,2.065-1.555,2.893-.031l1.042-1.716,1.2,1.8c.448-.173,1.144-.711,1.59-.55.6.216,1.008.97,1.439,1.429.428-.428.865-1.133,1.118-1.072a8.086,8.086,0,0,1,2.848,1.369c1.12-.2,2.247-.815,3.422.459a20.2,20.2,0,0,0,3.258,2.313c1.375-.165,1.476-.12,2.539,1.53l-1.14.507a4.19,4.19,0,0,0,.422.32,5.5,5.5,0,0,0,1.087.548,3.416,3.416,0,0,0,1.779.281c.875-.3,1.276.023,1.313.738a32.358,32.358,0,0,1-.126,3.27c.609.2,1.475.459,2.31.792.258.1.622.423.612.629-.051,1.122-.164,2.227.93,2.98-.2.277-.351.692-.62.8a4.069,4.069,0,0,1-1.316.034,8.293,8.293,0,0,1-.243,2.984c-.287.6-1.291.849-2.176,1.317q.74.889,1.488,1.774c-.734.284-1.706.365-2.155.892-1.312,1.541-2.978.1-4.346.727-1.461.666-2.881,1.744-4.394,1.9-1.906.191-2.927,1.483-4.215,2.421a3.334,3.334,0,0,0-1.311,2.3c.021,2.436.359,4.869.574,7.3l1.808-.713c8.611-5.017,15.892-11.77,23.56-18.018,1.812-1.476,3.729-2.824,5.6-4.231a3.859,3.859,0,0,1,4.569.632c1.968,1.608,3.708,3.492,5.646,5.141,1.553,1.323,3.254,2.471,4.89,3.7.34.095.69.163,1.017.29a4.626,4.626,0,0,0,5.186-.959c2.547-2.3,2.961-2.282,5.713-.224,1.618,1.21,3.214,2.451,4.82,3.678l1.763,1.431c.769.933,1.333.483,1.434-.391a18.844,18.844,0,0,0-.132-3.149c-.012.108-.023.217-.033.326.01-.109.021-.218.033-.326q.124-1.9.248-3.791.026-.3.05-.6.119-.948.239-1.9.039-.306.078-.612l.136-.62,3.249-1.558,1.883.214,1.906-.1.636-.06a33.121,33.121,0,0,0,3.64.575,10.558,10.558,0,0,0,2.4-.413.183.183,0,0,1,.2.142c.435.264.97.836,1.283.733a11.231,11.231,0,0,0,2.182-1.265l-.314-.466h0Zm-31.717-14.306a6.284,6.284,0,0,1-1.023-.181c-2.211-.77-4.381-1.675-6.627-2.319a9.5,9.5,0,0,0-9.219,1.987,5.353,5.353,0,0,1-1.473.618,6.078,6.078,0,0,1-.393-1.391,5.278,5.278,0,0,0-4.047-5.321c-2.542-.724-5.158-1.193-7.74-1.78-.443-.1-.878-.229-1.318-.345l.036-.418c4.11.561,8.361.081,12.313,1.781,2.156.928,2.7,2.136,2.256,4.514-.045.243-.045.495-.088.992a7.3,7.3,0,0,0,.954-.779,6.258,6.258,0,0,1,6.618-2.123c3.6.766,6.642,2.745,9.873,4.314Z" transform="translate(-15.714 0)" fill="#fff"/>
    <path id="Path_10517" data-name="Path 10517" d="M1866.153,511.63l1.969-.819c-.113-.18-.176-.417-.324-.5-.969-.522-1.343-2.334-2.989-1.4-.771-1.162-1.993-.666-3.032-.791a1.355,1.355,0,0,0-1.057.315,28.961,28.961,0,0,0-1.638,2.47A12.613,12.613,0,0,1,1866.153,511.63Z" transform="translate(-74.333 -91.967)" fill="#fff"/>
    <path id="Path_10518" data-name="Path 10518" d="M1844.486,551.906l5.4-4.108h0l1.1.914c1.132-.918,3.284-.2,3.958-2.377l-3.4,1.27-.224.1.224-.1c-.036-.039-.074-.077-.113-.113-.368-1.813-1.283.31-1.824-.254l-.986-1.034-.878,1.547C1846.064,547.109,1844.2,549.238,1844.486,551.906Z" transform="translate(-64.293 -118.115)" fill="#fff"/>
    <path id="Path_10519" data-name="Path 10519" d="M1836.949,547.572c.174-2.5.326-4.679.482-6.924C1835.553,541.12,1835.222,545.463,1836.949,547.572Z" transform="translate(-58.365 -114.301)" fill="#fff"/>
    <path id="Path_10520" data-name="Path 10520" d="M1843.59,537.93l-.517.214q-.176,2.061-.351,4.123l.754.29a13.609,13.609,0,0,0,1.726-3.007C1845.306,539.2,1844.163,538.48,1843.59,537.93Z" transform="translate(-63.102 -112.435)" fill="#fff"/>
    <path id="Path_10521" data-name="Path 10521" d="M1806.144,499.059a11.926,11.926,0,0,1-.428-2.059l-1.686,2.111,3.347,1.853v-1.271l-.382.314A3.909,3.909,0,0,1,1806.144,499.059Z" transform="translate(-36.539 -84.336)" fill="#fff"/>
    <path id="Path_10522" data-name="Path 10522" d="M1797.885,492.194c-1.873-.567-2.043,1.111-2.973,1.693l1.718,1.448C1797.167,494.411,1795.681,492.615,1797.885,492.194Z" transform="translate(-30.28 -80.957)" fill="#fff"/>
    <path id="Path_10523" data-name="Path 10523" d="M1835.916,494.614c-.506.292-.976.788-1.452.794-1.2.016-1.68.514-1.486,1.854a6.362,6.362,0,0,1,1.677-.94C1835.794,496.105,1835.949,495.428,1835.916,494.614Z" transform="translate(-56.384 -82.698)" fill="#fff"/>
    <path id="Path_10524" data-name="Path 10524" d="M1828.571,525.453c.116-.4.19-.817.281-1.226-.458.125-1.107.1-1.336.4-.611.8-.741,1.626.673,1.8C1828.343,526.042,1828.484,525.755,1828.571,525.453Z" transform="translate(-52.363 -103.028)" fill="#fff"/>
    <path id="Path_10525" data-name="Path 10525" d="M1851.394,538.968a1.369,1.369,0,0,0-.111.2l.111.035.117-.2C1851.47,538.989,1851.4,538.956,1851.394,538.968Z" transform="translate(-68.979 -113.146)" fill="#fff"/>
    <path id="Path_10526" data-name="Path 10526" d="M1955.583,543.158q-.05-.534-.1-1.067-.011.768-.021,1.534C1955.5,543.469,1955.542,543.314,1955.583,543.158Z" transform="translate(-140.5 -115.292)" fill="#fff"/>
    <path id="Path_10527" data-name="Path 10527" d="M1887.958,577.71l-.37-.066-14.022.619-10.674,2.131h0l-2.614.587a.225.225,0,0,0-.212.037l-.311.04-.624.122q-.005.237-.011.474l2.2-.615.78-.005-.78.005-2.2.615c-.971.21-1.939.438-2.912.635.973-.2,1.941-.425,2.912-.635l.011-.474-5.033,1.1-1.266.219c-1.338.418-2.657.928-4,1.3,1.346-.377,2.666-.887,4-1.305-4.7.6-9.393,1.371-14.114,1.757-3.1.253-6.246-.044-9.371-.094l-6.638-.618v.969l.131.29q2.277.019,4.555.042-2.277-.02-4.555-.042l.042.616h0q-.033.471-.066.941.142.471.286.942l.043.63.823.89-.823-.89.512,1.827.667-.226a62.667,62.667,0,0,0,19.174-.88l.577-.1c.355-.125.707-.264,1.061-.394a10.936,10.936,0,0,1,1.073-.346,10.936,10.936,0,0,0-1.073.346c-.354.13-.706.269-1.06.394.567-.072,1.142-.106,1.7-.222,4.642-.964,9.279-1.951,13.921-2.914a64.877,64.877,0,0,1,18.95-1.335h0l.109.006s.1-.036.1-.038.124,0,.124,0l.028-.121,1.374.417,0-.026,0,.026,1.3.192,1.244.306a.1.1,0,0,1,0-.014l.329.235,2.18.418q3.107,1,6.213,2.011v0l.328.224,1.634.222-1.635-.222-.867.2.107.579.072.39-.072-.39-.107-.579-.932-.333L1885.438,586c-9.061-2.028-18.014-.975-26.989.756-7.363,1.419-14.753,2.794-22.192,3.673-3.934.465-8-.168-12-.3-.262.423-.735.855-.719,1.267.014.35.536.83.935.982a16.264,16.264,0,0,0,2.366.543l.609.068c0,.076.007.151.016.225l11.912,1.668,3.347.2.479.019c10.059.05,19.911-1.816,29.823-3.168,3.816-.52,7.675-.724,11.514-1.072l11.115-.118.064-.341q.124-2.179.248-4.359.05-.775.1-1.55.014-.32.028-.639.105-1.748.211-3.5l.4-1.354-8.131-1.235Zm-20.055,8.965c.026-.019.051-.039.077-.061.076-.065.152-.138.228-.2-.077.065-.152.139-.228.2-.025.022-.051.042-.077.061-.274.026-.549.05-.823.074C1867.354,586.725,1867.628,586.7,1867.9,586.675Zm22.568-.934h0l.633-.182Zm-11.91-2.2h0Zm-.943-3.131c.1,0,.215.014.322.019-.107-.005-.219-.021-.322-.019Zm10.353,4.077h0Zm-13.17-5.023.594.787-.594-.787Zm-8.276,1.715a1.882,1.882,0,0,1-.3-.224A1.882,1.882,0,0,0,1866.526,581.179Zm.4.125h0Zm-2.557,1a1.988,1.988,0,0,1-.27-.008A1.988,1.988,0,0,0,1864.37,582.3Zm-1.486-1.272a2.765,2.765,0,0,0,.152.471,2.809,2.809,0,0,1-.152-.471Zm.5.976-.007-.008Zm-39.676,4.111a.755.755,0,0,0-.213-.3A.755.755,0,0,1,1823.71,586.116Zm40.118-2.26q-1.115.223-2.231.439,1.116-.217,2.231-.439l.318-.3h0Zm3.134-.316,5.955,0,.629-.62-.629.62Zm22-4.449a.672.672,0,0,1-.057.06h0A.672.672,0,0,0,1888.962,579.091Z" transform="translate(-49.363 -139.699)" fill="#fff"/>
    <path id="Path_10528" data-name="Path 10528" d="M1825.7,616.286v-.006l-.014.005Z" transform="translate(-51.407 -166.224)" fill="#fff"/>
  </g>
</svg>
